<svg width="256" height="188" viewBox="0 0 256 188" fill="none" xmlns="http://www.w3.org/2000/svg">
<g clip-path="url(#clip0_67_7)">
<path d="M196 185.874C192.722 182.472 190.731 177.098 191.253 171.867C191.776 166.635 195.009 161.826 199.204 160.715C203.398 159.604 208.18 162.679 209.454 167.712C210.155 158.009 210.963 147.899 215.163 139.636C218.966 132.153 225.552 126.799 232.691 125.842C239.829 124.884 247.345 128.501 251.798 135.422C256.25 142.343 257.34 152.405 254.222 160.351C251.925 166.204 247.693 170.56 243.259 174.104C228.931 185.46 211.747 190.077 194.868 187.108L196 185.874Z" fill="#F2F2F2"/>
<path d="M244.738 128.702C238.848 134.595 233.444 141.186 228.606 148.38C221.033 159.599 214.905 172.178 210.435 185.678C210.108 186.663 211.41 187.092 211.733 186.118C219.046 164.177 230.721 144.839 245.69 129.871C246.363 129.199 245.405 128.035 244.738 128.702Z" fill="white"/>
<path d="M82.4105 184.95C86.9122 180.277 89.6465 172.896 88.9294 165.711C88.2124 158.525 83.771 151.92 78.0098 150.394C72.2487 148.868 65.6814 153.092 63.9315 160.005C62.9685 146.677 61.8588 132.791 56.0902 121.441C50.8668 111.164 41.8199 103.811 32.0151 102.495C22.2102 101.18 11.887 106.148 5.77208 115.654C-0.342833 125.16 -1.84004 138.98 2.44268 149.893C5.59762 157.933 11.4101 163.916 17.5002 168.784C36.9296 184.313 61.0317 190.79 83.9652 186.644" fill="#F2F2F2"/>
<path d="M15.4679 106.424C23.5581 114.518 30.98 123.571 37.6263 133.451C44.2736 143.321 50.1258 153.96 55.1008 165.219C57.8816 171.534 60.3796 178.031 62.5838 184.681C63.0332 186.034 61.2449 186.622 60.8005 185.285C56.8964 173.561 52.0663 162.336 46.3795 151.769C40.7202 141.241 34.243 131.412 27.0386 122.421C22.9638 117.338 18.6645 112.533 14.1602 108.03C13.237 107.107 14.5523 105.508 15.4679 106.424Z" fill="white"/>
<path d="M183.761 187.588H76.3586V52.2284C76.3586 23.4295 95.4328 0 118.878 0H141.241C164.687 0 183.761 23.4295 183.761 52.2284V187.588Z" fill="#F2F2F2"/>
<path d="M161.398 187.589H76.3586V52.2285C76.3351 41.1934 79.1799 30.4373 84.4787 21.526C84.674 21.199 84.8689 20.8762 85.0698 20.557C87.6328 16.4279 90.6829 12.7914 94.1193 9.7677C94.3134 9.59421 94.5083 9.42374 94.7061 9.25325C97.5816 6.80897 100.692 4.81082 103.967 3.30427C104.161 3.21374 104.359 3.12302 104.557 3.03601C107.519 1.73774 110.589 0.848428 113.711 0.3845C113.905 0.352024 114.103 0.326611 114.302 0.301198C117.344 -0.098365 120.413 -0.098365 123.455 0.301198C123.653 0.326611 123.852 0.352021 124.048 0.384847C127.169 0.848806 130.238 1.73801 133.199 3.03603C133.397 3.12304 133.595 3.21375 133.79 3.30446C137.024 4.792 140.098 6.76033 142.943 9.16554C143.141 9.33232 143.339 9.50281 143.534 9.67329C145.46 11.3622 147.269 13.2438 148.943 15.2988C150.285 16.9471 151.536 18.7041 152.687 20.558C152.887 20.8762 153.082 21.199 153.277 21.5255C158.576 30.4368 161.421 41.1932 161.398 52.2285V187.589Z" fill="#CCCCCC"/>
<path d="M154.483 127.047C157.083 127.047 159.191 124.458 159.191 121.264C159.191 118.07 157.083 115.481 154.483 115.481C151.883 115.481 149.775 118.07 149.775 121.264C149.775 124.458 151.883 127.047 154.483 127.047Z" fill="#0064D2"/>
<path d="M174.962 183.534H171.355L169.639 166.442L174.963 166.443L174.962 183.534Z" fill="#FFB8B8"/>
<path d="M168.778 182.268H175.735V187.649H164.398C164.398 186.942 164.511 186.242 164.731 185.59C164.951 184.937 165.274 184.344 165.681 183.844C166.087 183.344 166.57 182.948 167.102 182.678C167.633 182.407 168.203 182.268 168.778 182.268Z" fill="#2F2E41"/>
<path d="M192.912 183.534H189.304L187.588 166.442L192.912 166.443L192.912 183.534Z" fill="#FFB8B8"/>
<path d="M186.727 182.268H193.685V187.649H182.347C182.347 186.942 182.46 186.242 182.68 185.59C182.901 184.937 183.223 184.344 183.63 183.844C184.037 183.344 184.52 182.948 185.051 182.678C185.583 182.407 186.152 182.268 186.727 182.268Z" fill="#2F2E41"/>
<path d="M156.866 122.409C156.606 121.94 156.433 121.406 156.36 120.845C156.287 120.285 156.314 119.712 156.441 119.166C156.567 118.62 156.79 118.115 157.092 117.686C157.395 117.257 157.771 116.914 158.193 116.683L170.456 75.1655L176.49 79.2105L162.488 118.886C162.758 119.783 162.75 120.77 162.467 121.66C162.183 122.55 161.644 123.281 160.951 123.716C160.258 124.15 159.459 124.257 158.706 124.016C157.953 123.775 157.298 123.204 156.866 122.409Z" fill="#FFB8B8"/>
<path d="M191.069 130.211C190.668 129.928 190.323 129.542 190.057 129.077C189.791 128.613 189.611 128.083 189.529 127.524C189.448 126.965 189.468 126.392 189.587 125.843C189.706 125.294 189.921 124.785 190.218 124.349L186.419 80.4308L193.286 80.8162L194.865 124.016C195.427 124.677 195.772 125.568 195.835 126.52C195.899 127.473 195.675 128.421 195.207 129.184C194.739 129.948 194.06 130.474 193.297 130.663C192.534 130.853 191.742 130.692 191.069 130.211Z" fill="#FFB8B8"/>
<path d="M180.114 67.4753C184.105 67.4753 187.341 63.5008 187.341 58.5979C187.341 53.6951 184.105 49.7205 180.114 49.7205C176.122 49.7205 172.887 53.6951 172.887 58.5979C172.887 63.5008 176.122 67.4753 180.114 67.4753Z" fill="#FFB8B8"/>
<path d="M191.023 120.222H169.234L169.261 120.014C169.3 119.703 173.144 88.7714 170.309 78.6521C170.024 77.6577 170.049 76.5691 170.379 75.596C170.709 74.6229 171.32 73.8339 172.095 73.3811C176.147 71.037 183.926 68.1506 190.491 75.1554C191.458 76.2032 192.212 77.5127 192.695 78.9803C193.178 80.448 193.377 82.0336 193.275 83.6117L191.023 120.222Z" fill="#0064D2"/>
<path d="M173.419 93.3426L163.61 90.8981L168.208 77.514C168.483 76.2176 169.166 75.1083 170.106 74.4293C171.046 73.7502 172.167 73.557 173.223 73.8918C174.279 74.2267 175.184 75.0624 175.739 76.2155C176.294 77.3687 176.454 78.7452 176.184 80.0432L173.419 93.3426Z" fill="#0064D2"/>
<path d="M185.983 97.8815L185.393 81.2763C184.946 78.1548 186.4 75.204 188.638 74.7216C190.876 74.2411 193.061 76.406 193.51 79.5504L195.727 95.0663L185.983 97.8815Z" fill="#0064D2"/>
<path d="M190.298 118.234C193.804 134.635 194.186 155.488 193.241 178.234L188.533 177.511L179.999 134.138L175.291 178.234L169.995 177.872C168.412 154.006 166.872 133.518 169.406 120.042L190.298 118.234Z" fill="#2F2E41"/>
<path d="M184.876 65.4586C183.528 67.2228 181.024 66.2757 180.848 63.8657C180.834 63.6786 180.835 63.4903 180.851 63.3034C180.942 62.2359 181.444 61.2667 181.324 60.1395C181.296 59.859 181.211 59.5916 181.076 59.3628C180.002 57.5956 177.48 60.1532 176.466 58.5534C175.844 57.5725 176.575 56.028 176.098 54.9316C175.468 53.4845 173.603 54.1983 172.433 53.4059C171.132 52.5241 171.21 50.0715 172.066 48.5796C173.111 46.7603 174.943 45.7895 176.752 45.6496C178.561 45.5097 180.357 46.1103 182.046 46.9188C183.965 47.8373 185.868 49.1068 187.049 51.1793C188.485 53.6997 188.623 57.0881 187.905 60.0352C187.468 61.828 185.977 64.018 184.876 65.4586Z" fill="#2F2E41"/>
<path d="M247.167 187.821H29.9219C29.8291 187.821 29.7403 187.775 29.6748 187.695C29.6093 187.614 29.5725 187.505 29.5725 187.391C29.5725 187.277 29.6093 187.167 29.6748 187.087C29.7403 187.006 29.8291 186.961 29.9219 186.96H247.167C247.26 186.961 247.349 187.006 247.414 187.087C247.48 187.167 247.516 187.277 247.516 187.391C247.516 187.505 247.48 187.614 247.414 187.695C247.349 187.775 247.26 187.821 247.167 187.821Z" fill="#3F3D56"/>
<path d="M138.005 148.372H99.7517C99.2479 148.375 98.7637 148.133 98.4051 147.698C98.0465 147.264 97.843 146.672 97.8391 146.053V41.1738C97.843 40.555 98.0465 39.9633 98.4051 39.5286C98.7637 39.0939 99.2479 38.8517 99.7517 38.855H138.005C138.508 38.8517 138.993 39.0939 139.351 39.5286C139.71 39.9633 139.913 40.555 139.917 41.1738V146.053C139.913 146.672 139.71 147.264 139.351 147.698C138.993 148.133 138.508 148.375 138.005 148.372Z" fill="white"/>
<path d="M139.917 72.7907H97.8391V73.5136H139.917V72.7907Z" fill="#CCCCCC"/>
<path d="M140.064 114.035H97.9862V114.758H140.064V114.035Z" fill="#CCCCCC"/>
<path d="M111.669 38.855H111.08V148.733H111.669V38.855Z" fill="#CCCCCC"/>
<path d="M126.382 38.855H125.793V148.733H126.382V38.855Z" fill="#CCCCCC"/>
</g>
<defs>
<clipPath id="clip0_67_7">
<rect width="256" height="188" fill="white"/>
</clipPath>
</defs>
</svg>
