<svg width="219" height="168" viewBox="0 0 219 168" fill="none" xmlns="http://www.w3.org/2000/svg">
<g clip-path="url(#clip0_67_33)">
<path d="M5.79871 167.629C5.79871 167.835 5.95314 168 6.14546 168H218.653C218.846 168 219 167.835 219 167.629C219 167.424 218.846 167.259 218.653 167.259H6.14546C5.95314 167.259 5.79871 167.424 5.79871 167.629Z" fill="#3F3D58"/>
<path d="M73.847 29.634H5.69089C3.09169 29.634 0.976196 27.373 0.976196 24.5949C0.976196 21.8168 3.09169 19.5557 5.69089 19.5557H73.847C76.4462 19.5557 78.5617 21.8168 78.5617 24.5949C78.5617 27.373 76.4462 29.634 73.847 29.634ZM5.69089 20.1786C3.41222 20.1786 1.55898 22.1593 1.55898 24.5949C1.55898 27.0304 3.41222 29.0112 5.69089 29.0112H73.847C76.1257 29.0112 77.9789 27.0304 77.9789 24.5949C77.9789 22.1593 76.1257 20.1786 73.847 20.1786H5.69089Z" fill="#E2E3E4"/>
<path d="M73.8469 88.6063H5.69082C3.1703 88.6063 1.12183 86.4168 1.12183 83.7228C1.12183 81.0288 3.1703 78.8394 5.69082 78.8394H73.8469C76.3675 78.8394 78.4159 81.0288 78.4159 83.7228C78.4159 86.4168 76.3675 88.6063 73.8469 88.6063Z" fill="#0064D2"/>
<path d="M51.5119 9.76694H4.569C2.04847 9.76694 0 7.57747 0 4.88347C0 2.18946 2.04847 0 4.569 0H51.5119C54.0325 0 56.0809 2.18946 56.0809 4.88347C56.0809 7.57747 54.0325 9.76694 51.5119 9.76694Z" fill="#E2E3E4"/>
<path d="M73.847 49.3424H5.69089C3.09169 49.3424 0.976196 47.0813 0.976196 44.3032C0.976196 41.5251 3.09169 39.264 5.69089 39.264H73.847C76.4462 39.264 78.5617 41.5251 78.5617 44.3032C78.5617 47.0813 76.4462 49.3424 73.847 49.3424ZM5.69089 39.8869C3.41222 39.8869 1.55898 41.8677 1.55898 44.3032C1.55898 46.7387 3.41222 48.7195 5.69089 48.7195H73.847C76.1257 48.7195 77.9789 46.7387 77.9789 44.3032C77.9789 41.8677 76.1257 39.8869 73.847 39.8869H5.69089Z" fill="#E2E3E4"/>
<path d="M73.847 69.0537H5.69089C3.09169 69.0537 0.976196 66.7926 0.976196 64.0145C0.976196 61.2364 3.09169 58.9753 5.69089 58.9753H73.847C76.4462 58.9753 78.5617 61.2364 78.5617 64.0145C78.5617 66.7926 76.4462 69.0537 73.847 69.0537ZM5.69089 59.5982C3.41222 59.5982 1.55898 61.579 1.55898 64.0145C1.55898 66.45 3.41222 68.4308 5.69089 68.4308H73.847C76.1257 68.4308 77.9789 66.45 77.9789 64.0145C77.9789 61.579 76.1257 59.5982 73.847 59.5982H5.69089Z" fill="#E2E3E4"/>
<path d="M3.34811 15.9366H21.2103C21.6357 15.9366 21.9825 16.3042 21.9825 16.762C21.9825 17.2167 21.6357 17.5873 21.2103 17.5873H3.34811C2.92268 17.5873 2.57593 17.2198 2.57593 16.762C2.57593 16.3073 2.92268 15.9366 3.34811 15.9366Z" fill="#E2E3E4"/>
<path d="M3.34811 36.1121H21.2103C21.6357 36.1121 21.9825 36.4796 21.9825 36.9343C21.9825 37.389 21.6357 37.7597 21.2103 37.7597H3.34811C2.92268 37.7597 2.57593 37.3922 2.57593 36.9375C2.57593 36.4827 2.92268 36.1121 3.34811 36.1121Z" fill="#E2E3E4"/>
<path d="M3.34811 56.2907H21.2103C21.6357 56.2907 21.9825 56.6582 21.9825 57.116C21.9825 57.5708 21.6357 57.9383 21.2103 57.9383H3.34811C2.92268 57.9383 2.57593 57.5708 2.57593 57.1129C2.57593 56.6582 2.92268 56.2907 3.34811 56.2907Z" fill="#E2E3E4"/>
<path d="M130.275 41.1918L123.759 43.4841V33.4586H129.671L130.275 41.1918Z" fill="#9F616A"/>
<path d="M124.566 36.2335C128.152 36.2335 131.059 33.1268 131.059 29.2945C131.059 25.4622 128.152 22.3555 124.566 22.3555C120.981 22.3555 118.074 25.4622 118.074 29.2945C118.074 33.1268 120.981 36.2335 124.566 36.2335Z" fill="#9F616A"/>
<path d="M126.35 28.6063C125.263 28.572 124.549 27.3979 124.126 26.3265C123.704 25.2551 123.27 24.0249 122.261 23.5827C121.437 23.2214 119.983 25.6662 119.333 25.0153C118.654 24.3364 119.316 20.8513 120.035 20.2253C120.755 19.5993 121.74 19.4778 122.667 19.4311C124.928 19.319 127.203 19.5152 129.421 20.0104C130.793 20.3156 132.204 20.7765 133.194 21.8354C134.447 23.1809 134.768 25.2084 134.858 27.1051C134.952 29.0454 134.847 31.076 133.964 32.7734C133.081 34.4708 131.233 35.7228 129.462 35.2899C129.284 34.2621 129.465 33.2063 129.535 32.1599C129.602 31.1165 129.532 29.9891 128.934 29.1575C128.34 28.326 127.064 27.9958 126.37 28.734" fill="#2F2E43"/>
<path d="M134.337 31.0107C134.986 30.503 135.764 30.0763 136.563 30.1822C137.425 30.2943 138.157 31.0543 138.378 31.9543C138.6 32.8544 138.352 33.8448 137.816 34.5798C137.283 35.3148 136.487 35.8007 135.648 36.0436C135.161 36.1838 134.628 36.243 134.165 36.0312C133.483 35.7166 133.113 34.7854 133.381 34.0441" fill="#2F2E43"/>
<path d="M109.493 96.299C109.059 98.5788 109.854 100.662 111.264 100.952C112.675 101.242 114.17 99.6252 114.601 97.3454C114.784 96.436 114.755 95.4954 114.516 94.5985L119.887 58.8601L113.17 57.5084L110.577 93.7918C110.026 94.5268 109.656 95.3864 109.493 96.3021V96.299Z" fill="#9F616A"/>
<path d="M123.689 38.884H119.106C115.865 39.4103 114.985 41.2572 114.248 44.6706C113.123 49.878 111.687 56.8108 111.972 56.9136C112.43 57.0755 120.233 60.9997 124.211 60.1028L123.689 38.884Z" fill="#E2E3E4"/>
<path d="M128.121 152.72H122.02V161.974H128.121V152.72Z" fill="#9F616A"/>
<path d="M116.078 167.573C115.437 167.573 114.866 167.558 114.435 167.514C112.815 167.355 111.267 166.075 110.489 165.328C110.14 164.991 110.029 164.456 110.21 163.995C110.341 163.665 110.6 163.416 110.923 163.319L115.207 162.011L122.142 157.009L122.221 157.159C122.25 157.215 122.932 158.526 123.159 159.41C123.246 159.747 123.223 160.027 123.092 160.245C123.002 160.395 122.873 160.482 122.771 160.532C122.897 160.672 123.29 160.958 124.502 161.164C126.271 161.463 126.644 159.504 126.659 159.423L126.67 159.357L126.723 159.32C127.565 158.741 128.083 158.476 128.261 158.532C128.372 158.566 128.558 158.629 129.062 163.964C129.112 164.132 129.465 165.359 129.226 166.533C128.966 167.81 123.745 167.371 122.699 167.271C122.669 167.274 118.759 167.573 116.081 167.573H116.078Z" fill="#2F2E43"/>
<path d="M145.496 145.451L140.318 148.902L144.9 156.753L150.077 153.302L145.496 145.451Z" fill="#9F616A"/>
<path d="M138.62 166.306C137.903 166.306 137.245 166.212 136.776 166.125C136.315 166.038 135.954 165.646 135.878 165.153C135.826 164.798 135.922 164.44 136.149 164.175L139.136 160.644L142.545 152.478L142.685 152.559C142.737 152.59 143.964 153.315 144.597 153.938C144.838 154.175 144.958 154.427 144.952 154.686C144.949 154.866 144.885 155.01 144.821 155.112C144.996 155.162 145.471 155.181 146.601 154.67C148.251 153.926 147.598 152.051 147.569 151.973L147.545 151.911L147.572 151.852C148 150.883 148.306 150.366 148.487 150.313C148.6 150.279 148.787 150.226 151.855 154.471C151.98 154.583 152.887 155.427 153.265 156.558C153.676 157.788 149.029 160.37 148.093 160.874C148.064 160.899 143.201 164.677 141.202 165.751C140.409 166.178 139.471 166.309 138.617 166.309L138.62 166.306Z" fill="#2F2E43"/>
<path d="M132.614 75.3418H115.53L113.98 92.328L120.764 155.091H129.485L125.997 118.841L140.144 151.568L147.895 145.769L136.848 115.216C136.848 115.216 140.794 88.6 137.693 81.9694C134.593 75.3418 132.614 75.3418 132.614 75.3418Z" fill="#2F2E43"/>
<path d="M141.114 76.3758H113.98L122.122 38.884H133.943L141.114 76.3758Z" fill="#E2E3E4"/>
<path d="M143.556 96.299C143.99 98.5788 143.195 100.662 141.785 100.952C140.374 101.242 138.879 99.6252 138.448 97.3454C138.265 96.436 138.294 95.4954 138.533 94.5985L133.162 58.8601L139.879 57.5084L142.472 93.7918C143.023 94.5268 143.393 95.3864 143.556 96.3021V96.299Z" fill="#9F616A"/>
<path d="M129.36 38.884H133.943C137.184 39.4103 138.064 41.2572 138.801 44.6706C139.926 49.878 141.362 56.8108 141.077 56.9136C140.619 57.0755 132.816 60.9997 128.838 60.1028L129.36 38.884Z" fill="#E2E3E4"/>
</g>
<defs>
<clipPath id="clip0_67_33">
<rect width="219" height="168" fill="white"/>
</clipPath>
</defs>
</svg>
